{
  "accessors": [
    {
      "bufferView": 2,
      "componentType": 5126,
      "count": 11694,
      "max": [
        11.892386436462402,
        0.4937896728515625,
        17.496257781982422
      ],
      "min": [
        -14.593596458435059,
        -15.901927947998047,
        -13.846839904785156
      ],
      "type": "VEC3"
    },
    {
      "bufferView": 2,
      "byteOffset": 140328,
      "componentType": 5126,
      "count": 11694,
      "max": [
        0.9998894333839417,
        0.9999998807907104,
        0.9994438290596008
      ],
      "min": [
        -0.9987468719482422,
        -0.9999512434005737,
        -0.9999900460243225
      ],
      "type": "VEC3"
    },
    {
      "bufferView": 1,
      "componentType": 5126,
      "count": 11694,
      "max": [
        0.9997504353523254,
        0.9997557401657104
      ],
      "min": [
        0.000244140625,
        0.00026651157531887293
      ],
      "type": "VEC2"
    },
    {
      "bufferView": 0,
      "componentType": 5125,
      "count": 29862,
      "type": "SCALAR"
    }
  ],
  "asset": {
    "extras": {
      "author": "LifeUp SG (https://sketchfab.com/lifeup)",
      "license": "COPYRIGHT TO LifeUp SG",
      "source": "https://sketchfab.com/3d-models/mentaiko-prawn-twice-baked-brotherbird-8e2f5d1530f2427194551c37da842183",
      "title": "Mentaiko Prawn Twice-Baked Brotherbird"
    },
    "generator": "Sketchfab-12.97.0",
    "version": "2.0"
  },
  "bufferViews": [
    {
      "buffer": 0,
      "byteLength": 119448,
      "name": "floatBufferViews",
      "target": 34963
    },
    {
      "buffer": 0,
      "byteLength": 93552,
      "byteOffset": 119448,
      "byteStride": 8,
      "name": "floatBufferViews",
      "target": 34962
    },
    {
      "buffer": 0,
      "byteLength": 280656,
      "byteOffset": 213000,
      "byteStride": 12,
      "name": "floatBufferViews",
      "target": 34962
    }
  ],
  "buffers": [
    {
      "byteLength": 493656,
      "uri": "scene.bin"
    }
  ],
  "extensionsUsed": [
    "KHR_materials_unlit"
  ],
  "images": [
    {
      "uri": "textures/mentaiko_u1_v1_baseColor.png"
    }
  ],
  "materials": [
    {
      "doubleSided": true,
      "extensions": {
        "KHR_materials_unlit": {}
      },
      "name": "mentaiko_u1_v1",
      "pbrMetallicRoughness": {
        "baseColorTexture": {
          "index": 0
        },
        "metallicFactor": 0.0
      }
    }
  ],
  "meshes": [
    {
      "name": "Object_0",
      "primitives": [
        {
          "attributes": {
            "NORMAL": 1,
            "POSITION": 0,
            "TEXCOORD_0": 2
          },
          "indices": 3,
          "material": 0,
          "mode": 4
        }
      ]
    }
  ],
  "nodes": [
    {
      "children": [
        1
      ],
      "matrix": [
        2.511896807049759e-18,
        -8.97106002517771e-19,
        0.0032321650069206953,
        0.0,
        -2.4304962977228946e-07,
        -0.0032321650069206953,
        -1.0765272030213253e-18,
        0.0,
        0.0032321650069206953,
        -2.4304962977228946e-07,
        -2.332529574405225e-18,
        0.0,
        0.0,
        0.0,
        0.0,
        1.0
      ],
      "name": "Sketchfab_model"
    },
    {
      "children": [
        2
      ],
      "name": "mentaiko.obj.cleaner.materialmerger.gles"
    },
    {
      "mesh": 0,
      "name": "Object_2"
    }
  ],
  "samplers": [
    {
      "magFilter": 9729,
      "minFilter": 9987,
      "wrapS": 10497,
      "wrapT": 10497
    }
  ],
  "scene": 0,
  "scenes": [
    {
      "name": "Sketchfab_Scene",
      "nodes": [
        0
      ]
    }
  ],
  "textures": [
    {
      "sampler": 0,
      "source": 0
    }
  ]
}
