{
  "accessors": [
    {
      "bufferView": 2,
      "componentType": 5126,
      "count": 10438,
      "max": [
        16.908905029296875,
        -0.7658920288085938,
        9.247163772583008
      ],
      "min": [
        -20.257041931152344,
        -15.628654479980469,
        -17.694597244262695
      ],
      "type": "VEC3"
    },
    {
      "bufferView": 2,
      "byteOffset": 125256,
      "componentType": 5126,
      "count": 10438,
      "max": [
        0.998222827911377,
        1.0,
        0.9997274875640869
      ],
      "min": [
        -0.9993469715118408,
        -0.9995387196540833,
        -0.9999340772628784
      ],
      "type": "VEC3"
    },
    {
      "bufferView": 1,
      "componentType": 5126,
      "count": 10438,
      "max": [
        0.9997469782829285,
        0.9968260526657104
      ],
      "min": [
        0.000244140625,
        0.0002601934829726815
      ],
      "type": "VEC2"
    },
    {
      "bufferView": 0,
      "componentType": 5125,
      "count": 30000,
      "type": "SCALAR"
    }
  ],
  "asset": {
    "extras": {
      "author": "LifeUp SG (https://sketchfab.com/lifeup)",
      "license": "COPYRIGHT TO LifeUp SG",
      "source": "https://sketchfab.com/3d-models/rocher-croissant-brotherbird-9190dc31980b425584fc2db12dafe460",
      "title": "Rocher Croissant Brotherbird"
    },
    "generator": "Sketchfab-12.97.0",
    "version": "2.0"
  },
  "bufferViews": [
    {
      "buffer": 0,
      "byteLength": 120000,
      "name": "floatBufferViews",
      "target": 34963
    },
    {
      "buffer": 0,
      "byteLength": 83504,
      "byteOffset": 120000,
      "byteStride": 8,
      "name": "floatBufferViews",
      "target": 34962
    },
    {
      "buffer": 0,
      "byteLength": 250512,
      "byteOffset": 203504,
      "byteStride": 12,
      "name": "floatBufferViews",
      "target": 34962
    }
  ],
  "buffers": [
    {
      "byteLength": 454016,
      "uri": "scene.bin"
    }
  ],
  "extensionsUsed": [
    "KHR_materials_unlit"
  ],
  "images": [
    {
      "uri": "textures/rocher_u1_v1_baseColor.png"
    }
  ],
  "materials": [
    {
      "doubleSided": true,
      "extensions": {
        "KHR_materials_unlit": {}
      },
      "name": "rocher_u1_v1",
      "pbrMetallicRoughness": {
        "baseColorTexture": {
          "index": 0
        },
        "metallicFactor": 0.0
      }
    }
  ],
  "meshes": [
    {
      "name": "Object_0",
      "primitives": [
        {
          "attributes": {
            "NORMAL": 1,
            "POSITION": 0,
            "TEXCOORD_0": 2
          },
          "indices": 3,
          "material": 0,
          "mode": 4
        }
      ]
    }
  ],
  "nodes": [
    {
      "children": [
        1
      ],
      "matrix": [
        1.0,
        0.0,
        0.0,
        0.0,
        0.0,
        -1.0,
        0.0,
        0.0,
        0.0,
        0.0,
        -1.0,
        0.0,
        0.0,
        0.0,
        0.0,
        1.0
      ],
      "name": "Sketchfab_model"
    },
    {
      "children": [
        2
      ],
      "name": "rocher.obj.cleaner.materialmerger.gles"
    },
    {
      "mesh": 0,
      "name": "Object_2"
    }
  ],
  "samplers": [
    {
      "magFilter": 9729,
      "minFilter": 9987,
      "wrapS": 10497,
      "wrapT": 10497
    }
  ],
  "scene": 0,
  "scenes": [
    {
      "name": "Sketchfab_Scene",
      "nodes": [
        0
      ]
    }
  ],
  "textures": [
    {
      "sampler": 0,
      "source": 0
    }
  ]
}
