{
  "accessors": [
    {
      "bufferView": 2,
      "componentType": 5126,
      "count": 20232,
      "max": [
        10.826980590820313,
        13.809623718261719,
        8.36639404296875
      ],
      "min": [
        -15.111921310424805,
        -15.01171875,
        0.03066253662109375
      ],
      "type": "VEC3"
    },
    {
      "bufferView": 2,
      "byteOffset": 242784,
      "componentType": 5126,
      "count": 20232,
      "max": [
        0.9999182224273682,
        0.9997886419296265,
        0.9998411536216736
      ],
      "min": [
        -0.9983437657356262,
        -0.9999446868896484,
        -0.9999544620513916
      ],
      "type": "VEC3"
    },
    {
      "bufferView": 1,
      "componentType": 5126,
      "count": 20232,
      "max": [
        0.999740719795227,
        0.9919432401657104
      ],
      "min": [
        0.000244140625,
        0.000248212949372828
      ],
      "type": "VEC2"
    },
    {
      "bufferView": 0,
      "componentType": 5125,
      "count": 20232,
      "type": "SCALAR"
    },
    {
      "bufferView": 2,
      "byteOffset": 485568,
      "componentType": 5126,
      "count": 2962,
      "max": [
        0.06979800015687943,
        0.007342000026255846,
        0.06979700177907944
      ],
      "min": [
        -0.06971199810504913,
        -0.0077840001322329044,
        -0.06971099972724915
      ],
      "type": "VEC3"
    },
    {
      "bufferView": 2,
      "byteOffset": 521112,
      "componentType": 5126,
      "count": 2962,
      "max": [
        0.8526942729949951,
        0.9999904632568359,
        0.8525677919387817
      ],
      "min": [
        -0.8532220721244812,
        -0.9999904036521912,
        -0.8531932234764099
      ],
      "type": "VEC3"
    },
    {
      "bufferView": 1,
      "byteOffset": 161856,
      "componentType": 5126,
      "count": 2962,
      "max": [
        0.9144819974899292,
        0.9428079724311829
      ],
      "min": [
        0.001825000043027103,
        0.0019920000340789557
      ],
      "type": "VEC2"
    },
    {
      "bufferView": 1,
      "byteOffset": 185552,
      "componentType": 5126,
      "count": 2962,
      "max": [
        0.9144819974899292,
        0.9428079724311829
      ],
      "min": [
        0.001825000043027103,
        0.0019920000340789557
      ],
      "type": "VEC2"
    },
    {
      "bufferView": 0,
      "byteOffset": 80928,
      "componentType": 5125,
      "count": 17280,
      "type": "SCALAR"
    }
  ],
  "asset": {
    "extras": {
      "author": "LifeUp SG (https://sketchfab.com/lifeup)",
      "license": "COPYRIGHT TO LifeUp SG",
      "source": "https://sketchfab.com/3d-models/jasmine-pearls-tea-chapter-2020fbf2c4ed4719b8adc9d899e5ed18",
      "title": "Jasmine Pearls Tea Chapter 茉莉花"
    },
    "generator": "Sketchfab-13.1.0",
    "version": "2.0"
  },
  "bufferViews": [
    {
      "buffer": 0,
      "byteLength": 150048,
      "name": "floatBufferViews",
      "target": 34963
    },
    {
      "buffer": 0,
      "byteLength": 209248,
      "byteOffset": 150048,
      "byteStride": 8,
      "name": "floatBufferViews",
      "target": 34962
    },
    {
      "buffer": 0,
      "byteLength": 556656,
      "byteOffset": 359296,
      "byteStride": 12,
      "name": "floatBufferViews",
      "target": 34962
    }
  ],
  "buffers": [
    {
      "byteLength": 915952,
      "uri": "scene.bin"
    }
  ],
  "extensionsUsed": [
    "KHR_materials_unlit"
  ],
  "images": [
    {
      "uri": "textures/JasmineTea_u1_v1_baseColor.png"
    },
    {
      "uri": "textures/initialShadingGroup_baseColor.png"
    }
  ],
  "materials": [
    {
      "doubleSided": true,
      "extensions": {
        "KHR_materials_unlit": {}
      },
      "name": "JasmineTea_u1_v1",
      "pbrMetallicRoughness": {
        "baseColorTexture": {
          "index": 0
        },
        "metallicFactor": 0.0
      }
    },
    {
      "doubleSided": true,
      "extensions": {
        "KHR_materials_unlit": {}
      },
      "name": "initialShadingGroup",
      "pbrMetallicRoughness": {
        "baseColorTexture": {
          "index": 1
        },
        "metallicFactor": 0.0
      }
    }
  ],
  "meshes": [
    {
      "name": "JasmineTea.002_JasmineTea_u1_v1_0",
      "primitives": [
        {
          "attributes": {
            "NORMAL": 1,
            "POSITION": 0,
            "TEXCOORD_0": 2
          },
          "indices": 3,
          "material": 0,
          "mode": 4
        }
      ]
    },
    {
      "name": "smallTeaPlate_v01_initialShadingGroup_0",
      "primitives": [
        {
          "attributes": {
            "NORMAL": 5,
            "POSITION": 4,
            "TEXCOORD_0": 6,
            "TEXCOORD_1": 7
          },
          "indices": 8,
          "material": 1,
          "mode": 4
        }
      ]
    }
  ],
  "nodes": [
    {
      "children": [
        1
      ],
      "matrix": [
        0.013757452368736267,
        0.0,
        0.0,
        0.0,
        0.0,
        3.0547680759909806e-18,
        -0.013757452368736267,
        0.0,
        0.0,
        0.013757452368736267,
        3.0547680759909806e-18,
        0.0,
        0.0,
        0.0,
        0.0,
        1.0
      ],
      "name": "Sketchfab_model"
    },
    {
      "children": [
        2
      ],
      "matrix": [
        0.009999999776482582,
        0.0,
        0.0,
        0.0,
        0.0,
        0.0,
        0.009999999776482582,
        0.0,
        0.0,
        -0.009999999776482582,
        0.0,
        0.0,
        0.0,
        0.0,
        0.0,
        1.0
      ],
      "name": "04fe81f9596c4a4da231d5943e240479.fbx"
    },
    {
      "children": [
        3,
        5
      ],
      "name": "RootNode"
    },
    {
      "children": [
        4
      ],
      "matrix": [
        20.806705474853516,
        0.0,
        0.0,
        0.0,
        0.0,
        0.3059544361357569,
        -20.804455883303177,
        0.0,
        0.0,
        20.804455883303177,
        0.3059544361357569,
        0.0,
        32.66161346435547,
        17.930068969726563,
        -14.969907760620117,
        1.0
      ],
      "name": "JasmineTea.002"
    },
    {
      "mesh": 0,
      "name": "JasmineTea.002_JasmineTea_u1_v1_0"
    },
    {
      "children": [
        6
      ],
      "matrix": [
        5336.480468749941,
        0.0008057861327489066,
        -3.3859194746195486e-18,
        -0.0,
        -0.0008057861327488958,
        5336.48046874987,
        -0.0008694230531534028,
        -0.0,
        1.3127922527905987e-10,
        -0.000869423053153393,
        -5336.480468749929,
        -0.0,
        0.0,
        22.979333877563477,
        0.0,
        1.0
      ],
      "name": "smallTeaPlate_v01"
    },
    {
      "mesh": 1,
      "name": "smallTeaPlate_v01_initialShadingGroup_0"
    }
  ],
  "samplers": [
    {
      "magFilter": 9729,
      "minFilter": 9987,
      "wrapS": 10497,
      "wrapT": 10497
    }
  ],
  "scene": 0,
  "scenes": [
    {
      "name": "Sketchfab_Scene",
      "nodes": [
        0
      ]
    }
  ],
  "textures": [
    {
      "sampler": 0,
      "source": 0
    },
    {
      "sampler": 0,
      "source": 1
    }
  ]
}
